<?xml version="1.0" encoding="UTF-8" standalone="no"?>
<svg
   width="360"
   height="69"
   viewBox="0 0 360 69"
   fill="none"
   version="1.1"
   id="svg36"
   sodipodi:docname="Header.svg"
   inkscape:version="1.2.1 (9c6d41e410, 2022-07-14, custom)"
   xmlns:inkscape="http://www.inkscape.org/namespaces/inkscape"
   xmlns:sodipodi="http://sodipodi.sourceforge.net/DTD/sodipodi-0.dtd"
   xmlns="http://www.w3.org/2000/svg"
   xmlns:svg="http://www.w3.org/2000/svg">
  <defs
     id="defs40" />
  <sodipodi:namedview
     id="namedview38"
     pagecolor="#ffffff"
     bordercolor="#000000"
     borderopacity="0.25"
     inkscape:showpageshadow="2"
     inkscape:pageopacity="0"
     inkscape:pagecheckerboard="0"
     inkscape:deskcolor="#d1d1d1"
     showgrid="false"
     inkscape:zoom="2.7361104"
     inkscape:cx="131.02541"
     inkscape:cy="34.53808"
     inkscape:window-width="1920"
     inkscape:window-height="974"
     inkscape:window-x="0"
     inkscape:window-y="20"
     inkscape:window-maximized="1"
     inkscape:current-layer="svg36" />
  <g
     id="g3096"
     inkscape:label="Cat"
     transform="translate(-11.676596,0.50875664)">
    <path
       d="m 159.375,11.65 c -2.625,1.65 -2.55,19.125 0.6,24.75 l 19.575,-12 c -3,-5.325 -17.7,-14.25 -20.175,-12.75 z"
       fill="#4c5359"
       id="path2"
       sodipodi:insensitive="true" />
    <path
       d="m 163.125,18.475 c -1.125,0.675 -1.65,12.15 0.3,15.75 l 12.525,-7.65 c -1.8,-3.45 -11.775,-8.7 -12.825,-8.1 z"
       fill="#f7a4a4"
       id="path4"
       sodipodi:insensitive="true" />
    <path
       d="m 200.625,11.65 c 2.625,1.65 2.55,19.125 -0.525,24.75 l -19.575,-12 c 2.925,-5.325 17.625,-14.25 20.1,-12.75 z"
       fill="#4c5359"
       id="path6"
       sodipodi:insensitive="true" />
    <path
       d="m 196.875,18.475 c 1.125,0.675 1.65,12.15 -0.3,15.75 l -12.6,-7.65 c 1.875,-3.45 11.85,-8.7 12.9,-8.1 z"
       fill="#f7a4a4"
       id="path8"
       sodipodi:insensitive="true" />
    <path
       d="m 179.85,19.825 c -20.325,0 -22.2,14.55 -22.2,22.8 0,3.375 9.9,13.875 22.2,13.875 12.3,0 22.2,-10.5 22.2,-13.875 0,-8.25 -1.875,-22.8 -22.2,-22.8 z"
       fill="#4c5359"
       id="path10"
       sodipodi:insensitive="true" />
    <path
       d="m 174.15,39.025 c 0,0 -2.325,3.6 -6.6,2.475 -4.275,-1.125 -4.5,-5.4 -4.5,-5.4 0,0 2.325,-3.6 6.6,-2.475 4.35,1.125 4.5,5.4 4.5,5.4 z"
       fill="#bfffab"
       id="path12"
       sodipodi:insensitive="true" />
    <path
       d="m 173.7,37.15 c 0,0 -2.025,2.25 -4.875,2.25 -3.075,0 -4.875,-4.425 -4.875,-4.425 0,0 2.025,-2.325 5.7,-1.425 3.375,0.9 4.05,3.6 4.05,3.6 z"
       fill="#93e67f"
       id="path14"
       sodipodi:insensitive="true" />
    <path
       d="m 170.55,37.075 c 0,4.95 -2.4,4.95 -2.4,0 0.075,-4.95 2.4,-4.95 2.4,0 z"
       fill="#4c5359"
       id="path16"
       sodipodi:insensitive="true" />
    <path
       d="m 185.55,39.025 c 0,0 2.325,3.6 6.6,2.475 4.275,-1.125 4.5,-5.4 4.5,-5.4 0,0 -2.325,-3.6 -6.6,-2.475 -4.35,1.125 -4.5,5.4 -4.5,5.4 z"
       fill="#bfffab"
       id="path18"
       sodipodi:insensitive="true" />
    <path
       d="m 185.925,37.15 c 0,0 2.025,2.25 4.875,2.25 3.075,0 4.875,-4.425 4.875,-4.425 0,0 -2.025,-2.325 -5.7,-1.425 -3.375,0.9 -4.05,3.6 -4.05,3.6 z"
       fill="#93e67f"
       id="path20"
       sodipodi:insensitive="true" />
    <path
       d="m 189.075,37.075 c 0,4.95 2.4,4.95 2.4,0 0,-4.95 -2.4,-4.95 -2.4,0 z"
       fill="#4c5359"
       id="path22"
       sodipodi:insensitive="true" />
    <path
       d="m 186.3,43 c -1.95,-1.5 -4.05,-6.525 -6.45,-6.525 -2.4,0 -4.575,5.025 -6.525,6.525 -3.075,2.4 -11.25,5.1 -11.25,5.1 0,0 8.7,7.65 17.7,7.65 9,0 17.7,-7.65 17.7,-7.65 0.075,0 -8.1,-2.7 -11.175,-5.1 z"
       fill="#ffffff"
       id="path24"
       sodipodi:insensitive="true" />
    <path
       d="m 179.85,52.75 c 0.704,0 1.275,-0.8395 1.275,-1.875 0,-1.0355 -0.571,-1.875 -1.275,-1.875 -0.704,0 -1.275,0.8395 -1.275,1.875 0,1.0355 0.571,1.875 1.275,1.875 z"
       fill="#ff94a4"
       id="path26"
       sodipodi:insensitive="true" />
    <path
       d="m 186.15,49.825 c -0.75,0.45 -1.575,0.6 -2.325,0.6 -0.825,-0.075 -1.575,-0.3 -2.175,-0.825 -0.6,-0.45 -1.05,-1.125 -1.2,-1.95 l -0.6,-3.375 -0.6,3.375 c -0.15,0.75 -0.6,1.425 -1.2,1.95 -0.6,0.525 -1.425,0.75 -2.175,0.825 -0.825,0 -1.65,-0.15 -2.325,-0.6 -0.75,-0.45 -1.35,-1.125 -1.65,-2.025 0.075,0.975 0.525,1.875 1.275,2.55 0.75,0.675 1.725,1.05 2.625,1.05 1.05,0.075 2.025,-0.225 2.85,-0.825 0.45,-0.3 0.825,-0.75 1.125,-1.2 0.3,0.45 0.675,0.9 1.125,1.2 0.825,0.6 1.875,0.9 2.85,0.825 0.975,-0.075 1.95,-0.45 2.7,-1.05 0.75,-0.675 1.275,-1.575 1.275,-2.55 -0.225,0.825 -0.825,1.575 -1.575,2.025 z"
       fill="#4c5359"
       id="path28"
       sodipodi:insensitive="true" />
    <path
       d="m 182.85,43.6 c -0.6,-0.75 -2.475,-0.825 -3,-0.825 -0.525,0 -2.4,0.075 -3,0.825 -0.45,0.525 -0.075,1.875 1.05,3 0.75,0.75 1.425,0.975 1.95,0.975 0.525,0 1.275,-0.225 1.95,-0.975 1.125,-1.2 1.5,-2.475 1.05,-3 z"
       fill="#4c5359"
       id="path30"
       sodipodi:insensitive="true" />
  </g>
  <path
     d="m 236.49808,41.023287 c -0.094,-0.3906 -0.094,-0.836 0,-1.336 0.109,-0.5156 0.258,-1.0312 0.445,-1.5468 0.187,-0.5156 0.391,-1.0078 0.609,-1.4766 0.219,-0.4844 0.399,-0.8828 0.539,-1.1953 0.079,-0.1875 0.196,-0.4609 0.352,-0.8203 0.172,-0.3594 0.359,-0.7656 0.563,-1.2188 0.218,-0.4531 0.437,-0.9296 0.656,-1.4296 0.234,-0.5 0.453,-0.9766 0.656,-1.4297 0.219,-0.4532 0.406,-0.8516 0.562,-1.1953 0.172,-0.3594 0.297,-0.625 0.376,-0.7969 -0.266,-0.0469 -0.649,-0.0235 -1.149,0.0703 -0.484,0.0937 -1.023,0.2187 -1.617,0.375 -0.594,0.1406 -1.203,0.289 -1.828,0.4453 -0.625,0.1563 -1.211,0.2734 -1.758,0.3516 -0.531,0.0625 -0.992,0.0703 -1.383,0.0234 -0.375,-0.0625 -0.609,-0.2266 -0.703,-0.4922 0.109,-0.2031 0.508,-0.4375 1.195,-0.7031 0.688,-0.2656 1.563,-0.5391 2.625,-0.8203 1.078,-0.2969 2.274,-0.5938 3.586,-0.8907 1.328,-0.2968 2.68,-0.5781 4.055,-0.8437 1.375,-0.2656 2.719,-0.5078 4.031,-0.7266 1.313,-0.2187 2.485,-0.3984 3.516,-0.539 1.031,-0.1407 1.859,-0.2344 2.484,-0.2813 0.641,-0.0468 0.977,-0.0312 1.008,0.0469 0.047,0.125 0.055,0.2813 0.023,0.4687 -0.031,0.1719 -0.132,0.2813 -0.304,0.3282 -0.766,0.125 -1.594,0.2656 -2.485,0.4218 -0.89,0.1407 -1.796,0.2969 -2.718,0.4688 -0.907,0.1562 -1.797,0.3203 -2.672,0.4922 -0.875,0.1562 -1.688,0.3125 -2.438,0.4687 -0.484,0.0938 -0.953,0.375 -1.406,0.8438 -0.453,0.4687 -0.891,1.0547 -1.312,1.7578 -0.422,0.6875 -0.829,1.4609 -1.219,2.3203 -0.391,0.8438 -0.766,1.7031 -1.125,2.5781 -0.344,0.875 -0.664,1.7188 -0.961,2.5313 -0.297,0.8125 -0.571,1.5312 -0.821,2.1562 -0.25,0.6094 -0.468,1.086 -0.656,1.4297 -0.187,0.3438 -0.344,0.4844 -0.468,0.4219 -0.032,-0.0312 -0.079,-0.0781 -0.141,-0.1406 -0.063,-0.0625 -0.102,-0.1016 -0.117,-0.1172 z m 7.172,4.5937 c -0.047,-0.0312 -0.118,-0.1093 -0.211,-0.2343 -0.11,-0.1094 -0.196,-0.2266 -0.258,-0.3516 -0.063,-0.125 -0.086,-0.2344 -0.071,-0.3281 0,-0.0938 0.086,-0.1407 0.258,-0.1407 0.328,0.4532 0.789,0.625 1.383,0.5157 0.594,-0.1094 1.235,-0.3828 1.922,-0.8203 0.687,-0.4219 1.383,-0.961 2.086,-1.6172 0.719,-0.6406 1.359,-1.2813 1.922,-1.9219 0.578,-0.6406 1.047,-1.2187 1.406,-1.7344 0.375,-0.5156 0.563,-0.8593 0.563,-1.0312 0,-0.0469 -0.063,-0.1172 -0.188,-0.211 -0.125,-0.1093 -0.273,-0.2187 -0.445,-0.3281 -0.157,-0.1094 -0.305,-0.2109 -0.446,-0.3047 -0.14,-0.0937 -0.226,-0.164 -0.257,-0.2109 0.046,-0.1563 0.195,-0.2734 0.445,-0.3516 0.25,-0.0937 0.531,-0.1718 0.844,-0.2344 0.312,-0.0781 0.617,-0.1484 0.914,-0.2109 0.312,-0.0781 0.547,-0.1719 0.703,-0.2812 0.828,-1.2032 1.547,-2.2813 2.156,-3.2344 0.625,-0.9688 1.211,-1.9141 1.758,-2.8359 0.562,-0.9376 1.133,-1.8985 1.711,-2.8829 0.578,-0.9843 1.242,-2.0937 1.992,-3.3281 0.203,-0.3437 0.367,-0.4609 0.492,-0.3516 0.125,0.1094 0.219,0.375 0.281,0.7969 0.063,0.4219 0.102,0.961 0.118,1.6172 0.015,0.6406 0.015,1.3359 0,2.0859 -0.016,0.75 -0.047,1.5157 -0.094,2.2969 -0.031,0.7813 -0.07,1.5 -0.117,2.1563 -0.031,0.6562 -0.063,1.2265 -0.094,1.7109 -0.016,0.4688 -0.016,0.7735 0,0.9141 0.063,0.7968 0.102,1.4922 0.117,2.0859 0.031,0.5781 0.11,1.1172 0.235,1.6172 0.125,0.4844 0.335,0.9609 0.632,1.4297 0.313,0.4531 0.782,0.9531 1.407,1.5 -0.516,0.1719 -0.946,0.1562 -1.289,-0.0469 -0.329,-0.1875 -0.602,-0.4765 -0.821,-0.8672 -0.203,-0.4062 -0.375,-0.8672 -0.515,-1.3828 -0.125,-0.5312 -0.25,-1.0391 -0.375,-1.5234 -0.11,-0.5 -0.243,-0.9297 -0.399,-1.2891 -0.14,-0.375 -0.336,-0.6172 -0.586,-0.7266 -0.015,0 -0.062,0 -0.14,0 -0.063,-0.0156 -0.141,-0.0234 -0.235,-0.0234 -0.078,0 -0.156,0.0078 -0.234,0.0234 -0.078,0 -0.133,0 -0.164,0 -0.141,0.0313 -0.406,0.0938 -0.797,0.1876 -0.375,0.0937 -0.789,0.1953 -1.242,0.3046 -0.453,0.1094 -0.891,0.2188 -1.313,0.3282 -0.406,0.1093 -0.703,0.1875 -0.89,0.2343 -0.391,0.1094 -0.805,0.3594 -1.243,0.75 -0.421,0.3907 -0.875,0.8672 -1.359,1.4297 -0.469,0.5469 -0.961,1.1485 -1.476,1.8047 -0.5,0.6563 -1.016,1.2969 -1.547,1.9219 -0.532,0.625 -1.071,1.2031 -1.618,1.7344 -0.546,0.5312 -1.093,0.9609 -1.64,1.289 -0.547,0.3282 -1.094,0.5078 -1.641,0.5391 -0.562,0.0469 -1.109,-0.1094 -1.64,-0.4688 z m 12.703,-10.3125 c 0.031,0.0157 0.109,0.0235 0.234,0.0235 0.141,0 0.234,-0.0078 0.281,-0.0235 0.282,-0.0468 0.633,-0.1015 1.055,-0.164 0.422,-0.0625 0.844,-0.1328 1.266,-0.211 0.421,-0.0937 0.812,-0.1953 1.171,-0.3046 0.36,-0.125 0.61,-0.2579 0.75,-0.3985 0,0 0.024,-0.1641 0.071,-0.4922 0.047,-0.3281 0.101,-0.7422 0.164,-1.2422 0.062,-0.5156 0.125,-1.0781 0.187,-1.6875 0.078,-0.625 0.149,-1.2343 0.211,-1.8281 0.063,-0.5937 0.11,-1.1406 0.141,-1.6406 0.047,-0.5156 0.078,-0.9141 0.094,-1.1953 -0.172,-0.0782 -0.399,0.125 -0.68,0.6094 -0.281,0.4687 -0.648,1.1171 -1.102,1.9453 -0.437,0.8281 -0.976,1.7968 -1.617,2.9062 -0.625,1.0938 -1.367,2.2344 -2.226,3.4219 z m 11.086,5.7188 c -0.079,-0.0313 -0.266,-0.1172 -0.563,-0.2578 -0.281,-0.1406 -0.547,-0.3047 -0.797,-0.4922 -0.25,-0.1875 -0.429,-0.3828 -0.539,-0.586 -0.094,-0.2031 0.008,-0.375 0.305,-0.5156 0.172,0.1563 0.406,0.3438 0.703,0.5625 0.312,0.2188 0.609,0.3828 0.891,0.4922 0.859,0.0469 1.695,0.0547 2.507,0.0235 0.813,-0.0469 1.602,-0.1485 2.368,-0.3047 0.781,-0.1719 1.531,-0.4219 2.25,-0.75 0.734,-0.3438 1.445,-0.7891 2.132,-1.336 0.766,-0.6406 1.266,-1.2265 1.5,-1.7578 0.25,-0.5469 0.297,-1.0469 0.141,-1.5 -0.141,-0.4687 -0.445,-0.8984 -0.914,-1.2891 -0.453,-0.4062 -1,-0.7812 -1.641,-1.125 -0.625,-0.3593 -1.296,-0.6874 -2.015,-0.9843 -0.719,-0.3125 -1.407,-0.6094 -2.063,-0.8907 -0.656,-0.2968 -1.25,-0.5859 -1.781,-0.8671 -0.531,-0.2813 -0.922,-0.5703 -1.172,-0.8672 -0.062,-0.2657 0.07,-0.5781 0.399,-0.9375 0.328,-0.3594 0.781,-0.7266 1.359,-1.1016 0.578,-0.3906 1.242,-0.7734 1.992,-1.1484 0.75,-0.3906 1.516,-0.7422 2.297,-1.0547 0.797,-0.3125 1.562,-0.5781 2.297,-0.7969 0.75,-0.2187 1.406,-0.3516 1.969,-0.3984 0.562,-0.0625 0.992,-0.0235 1.289,0.1172 0.297,0.1406 0.398,0.4062 0.304,0.7968 -0.109,0.0157 -0.39,0.086 -0.843,0.211 -0.454,0.125 -1.008,0.2812 -1.664,0.4687 -0.641,0.1875 -1.344,0.4063 -2.11,0.6563 -0.75,0.25 -1.492,0.5156 -2.226,0.7968 -0.735,0.2657 -1.414,0.5391 -2.039,0.8204 -0.625,0.2812 -1.118,0.5546 -1.477,0.8203 -0.359,0.2656 -0.562,0.5078 -0.609,0.7265 -0.032,0.2188 0.179,0.4063 0.632,0.5625 2.282,0.6875 4.071,1.4219 5.368,2.2032 1.312,0.7656 2.234,1.5468 2.765,2.3437 0.532,0.7813 0.735,1.5547 0.61,2.3203 -0.125,0.7657 -0.469,1.4766 -1.032,2.1328 -0.546,0.6563 -1.265,1.2422 -2.156,1.7579 -0.89,0.5 -1.836,0.8906 -2.836,1.1718 -0.984,0.2813 -1.976,0.4297 -2.976,0.4453 -0.985,0.0157 -1.86,-0.1406 -2.625,-0.4687 z m 28.945,2.414 c -0.5,-0.7968 -1,-1.5234 -1.5,-2.1796 -0.484,-0.6563 -0.992,-1.2891 -1.524,-1.8985 -0.531,-0.625 -1.093,-1.25 -1.687,-1.875 -0.578,-0.625 -1.211,-1.289 -1.898,-1.9922 -0.985,-1.0312 -1.805,-1.7968 -2.461,-2.2968 -0.641,-0.5 -1.18,-0.7891 -1.618,-0.8672 -0.421,-0.0781 -0.773,0.0469 -1.054,0.375 -0.282,0.3125 -0.555,0.7812 -0.821,1.4062 -0.265,0.6094 -0.546,1.3516 -0.843,2.2266 -0.297,0.875 -0.68,1.8281 -1.149,2.8594 -0.156,0.3281 -0.336,0.7109 -0.539,1.1484 -0.187,0.4219 -0.453,0.75 -0.797,0.9844 -0.265,0.1719 -0.383,0.0937 -0.351,-0.2344 0.031,-0.3437 0.156,-0.8281 0.375,-1.4531 0.219,-0.625 0.492,-1.3282 0.82,-2.1094 0.344,-0.7969 0.68,-1.5625 1.008,-2.2969 0.328,-0.7343 0.617,-1.3672 0.867,-1.8984 0.25,-0.5469 0.406,-0.8828 0.469,-1.0078 0.375,-0.8907 0.758,-1.7031 1.148,-2.4375 0.391,-0.75 0.774,-1.4844 1.149,-2.2032 0.39,-0.7187 0.765,-1.4531 1.125,-2.2031 0.375,-0.75 0.718,-1.5781 1.031,-2.4843 0.141,-0.0938 0.266,-0.1172 0.375,-0.0704 0.109,0.0313 0.203,0.0938 0.281,0.1875 0.078,0.0938 0.125,0.211 0.141,0.3516 0.031,0.125 0.031,0.2344 0,0.3281 -0.094,0.1875 -0.242,0.4844 -0.445,0.8906 -0.188,0.3907 -0.391,0.8047 -0.61,1.2422 -0.203,0.4219 -0.398,0.836 -0.586,1.2422 -0.187,0.3906 -0.328,0.6875 -0.422,0.8906 -0.031,0.0782 -0.093,0.2422 -0.187,0.4922 -0.094,0.2344 -0.125,0.4297 -0.094,0.586 0.453,0.0937 1.016,0.0547 1.688,-0.1172 0.687,-0.1719 1.421,-0.4219 2.203,-0.75 0.797,-0.3281 1.617,-0.7031 2.461,-1.125 0.859,-0.4375 1.671,-0.8672 2.437,-1.2891 0.781,-0.4219 1.484,-0.8125 2.11,-1.1719 0.64,-0.375 1.156,-0.6562 1.546,-0.8437 0.375,-0.1875 0.571,-0.2187 0.586,-0.0937 0.016,0.125 -0.07,0.3124 -0.258,0.5624 -0.171,0.25 -0.398,0.5157 -0.679,0.7969 -0.266,0.2657 -0.5,0.4531 -0.703,0.5625 -0.157,0.0938 -0.391,0.2266 -0.703,0.3985 -0.313,0.1562 -0.641,0.3203 -0.985,0.4921 -0.344,0.1563 -0.656,0.3047 -0.937,0.4454 -0.282,0.1406 -0.469,0.2265 -0.563,0.2578 -0.422,0.1875 -0.953,0.3984 -1.594,0.6328 -0.64,0.2344 -1.312,0.4844 -2.015,0.75 -0.688,0.2656 -1.375,0.5547 -2.063,0.8672 -0.672,0.2968 -1.25,0.6094 -1.734,0.9375 -0.125,0.0937 -0.234,0.1875 -0.328,0.2812 -0.078,0.0781 -0.149,0.1641 -0.211,0.2578 -0.047,0.0938 -0.039,0.1797 0.023,0.2579 0.235,0.1406 0.594,0.4218 1.078,0.8437 0.485,0.4219 1.032,0.9219 1.641,1.5 0.609,0.5781 1.25,1.2187 1.922,1.9219 0.687,0.7031 1.351,1.414 1.992,2.1328 0.641,0.7187 1.227,1.4219 1.758,2.1094 0.531,0.6875 0.953,1.3046 1.266,1.8515 0.328,0.5625 0.515,1.0313 0.562,1.4063 0.047,0.375 -0.101,0.6015 -0.445,0.6797 -0.032,-0.0157 -0.078,-0.0547 -0.141,-0.1172 -0.047,-0.0625 -0.086,-0.1094 -0.117,-0.1407 z m 4.078,-2.414 c -0.078,-0.0313 -0.266,-0.1172 -0.562,-0.2578 -0.282,-0.1406 -0.547,-0.3047 -0.797,-0.4922 -0.25,-0.1875 -0.43,-0.3828 -0.539,-0.586 -0.094,-0.2031 0.007,-0.375 0.304,-0.5156 0.172,0.1563 0.407,0.3438 0.703,0.5625 0.313,0.2188 0.61,0.3828 0.891,0.4922 0.859,0.0469 1.695,0.0547 2.508,0.0235 0.812,-0.0469 1.601,-0.1485 2.367,-0.3047 0.781,-0.1719 1.531,-0.4219 2.25,-0.75 0.734,-0.3438 1.445,-0.7891 2.133,-1.336 0.766,-0.6406 1.266,-1.2265 1.5,-1.7578 0.25,-0.5469 0.297,-1.0469 0.14,-1.5 -0.14,-0.4687 -0.445,-0.8984 -0.914,-1.2891 -0.453,-0.4062 -1,-0.7812 -1.64,-1.125 -0.625,-0.3593 -1.297,-0.6874 -2.016,-0.9843 -0.719,-0.3125 -1.406,-0.6094 -2.062,-0.8907 -0.657,-0.2968 -1.25,-0.5859 -1.782,-0.8671 -0.531,-0.2813 -0.921,-0.5703 -1.171,-0.8672 -0.063,-0.2657 0.07,-0.5781 0.398,-0.9375 0.328,-0.3594 0.781,-0.7266 1.359,-1.1016 0.578,-0.3906 1.243,-0.7734 1.993,-1.1484 0.75,-0.3906 1.515,-0.7422 2.296,-1.0547 0.797,-0.3125 1.563,-0.5781 2.297,-0.7969 0.75,-0.2187 1.407,-0.3516 1.969,-0.3984 0.563,-0.0625 0.992,-0.0235 1.289,0.1172 0.297,0.1406 0.399,0.4062 0.305,0.7968 -0.11,0.0157 -0.391,0.086 -0.844,0.211 -0.453,0.125 -1.008,0.2812 -1.664,0.4687 -0.641,0.1875 -1.344,0.4063 -2.109,0.6563 -0.75,0.25 -1.493,0.5156 -2.227,0.7968 -0.734,0.2657 -1.414,0.5391 -2.039,0.8204 -0.625,0.2812 -1.117,0.5546 -1.477,0.8203 -0.359,0.2656 -0.562,0.5078 -0.609,0.7265 -0.031,0.2188 0.18,0.4063 0.633,0.5625 2.281,0.6875 4.07,1.4219 5.367,2.2032 1.313,0.7656 2.234,1.5468 2.766,2.3437 0.531,0.7813 0.734,1.5547 0.609,2.3203 -0.125,0.7657 -0.469,1.4766 -1.031,2.1328 -0.547,0.6563 -1.266,1.2422 -2.156,1.7579 -0.891,0.5 -1.836,0.8906 -2.836,1.1718 -0.985,0.2813 -1.977,0.4297 -2.977,0.4453 -0.984,0.0157 -1.859,-0.1406 -2.625,-0.4687 z"
     fill="#ffffff"
     id="path32" />
  <path
     d="m 48.69308,40.90247 c -0.9531,-0.375 -1.6094,-0.8828 -1.9688,-1.5234 -0.3593,-0.6407 -0.5078,-1.3516 -0.4453,-2.1329 0.0782,-0.7968 0.3282,-1.6406 0.75,-2.5312 0.4375,-0.9063 0.9688,-1.8125 1.5938,-2.7188 0.6406,-0.9062 1.3437,-1.789 2.1094,-2.6484 0.7656,-0.8594 1.5234,-1.6484 2.2734,-2.3672 0.75,-0.7187 1.4531,-1.3437 2.1094,-1.875 0.6562,-0.5312 1.1875,-0.9219 1.5937,-1.1719 0.5625,-0.3437 1.0313,-0.5078 1.4063,-0.4922 0.375,0 0.6719,0.1172 0.8906,0.3516 0.2344,0.2188 0.3906,0.5313 0.4687,0.9375 0.0938,0.3906 0.1329,0.8125 0.1172,1.2656 0,0.4375 -0.0468,0.8829 -0.1406,1.336 -0.0781,0.4375 -0.1875,0.8203 -0.3281,1.1484 -0.125,0.3281 -0.2656,0.5703 -0.4219,0.7266 -0.1406,0.1562 -0.2812,0.164 -0.4219,0.0234 -0.0156,-0.125 0,-0.3125 0.0469,-0.5625 0.0469,-0.2656 0.1016,-0.5625 0.1641,-0.8906 0.0781,-0.3281 0.1484,-0.6641 0.2109,-1.0078 0.0625,-0.3438 0.1016,-0.6563 0.1172,-0.9375 0.0312,-0.2969 0.0234,-0.5469 -0.0234,-0.75 -0.0313,-0.2031 -0.1172,-0.3203 -0.2578,-0.3516 -0.5469,-0.1406 -1.2032,-0.0078 -1.9688,0.3985 -0.75,0.3906 -1.5391,0.9609 -2.3672,1.7109 -0.8125,0.7344 -1.625,1.5937 -2.4375,2.5781 -0.7969,0.9688 -1.5234,1.9688 -2.1797,3 -0.6562,1.0313 -1.1953,2.0391 -1.6172,3.0234 -0.4218,0.9688 -0.664,1.8282 -0.7265,2.5782 -0.0469,0.7344 0.1172,1.3047 0.4922,1.7109 0.3906,0.3906 1.0703,0.5156 2.039,0.375 0.8907,-0.125 1.711,-0.4375 2.461,-0.9375 0.7656,-0.5156 1.5,-1.0781 2.2031,-1.6875 0.7187,-0.625 1.4297,-1.2344 2.1328,-1.8281 0.7031,-0.6094 1.4375,-1.0703 2.2031,-1.3828 0.2813,-0.1094 0.5,-0.0703 0.6563,0.1172 0.1718,0.1875 0.2187,0.414 0.1406,0.6796 -0.0938,0.2657 -0.375,0.6172 -0.8438,1.0547 -0.4531,0.4375 -1.0234,0.8985 -1.7109,1.3829 -0.6719,0.4687 -1.4141,0.9453 -2.2265,1.4296 -0.8126,0.4688 -1.6094,0.875 -2.3907,1.2188 -0.7656,0.3437 -1.4843,0.5937 -2.1562,0.75 -0.6563,0.1562 -1.1719,0.1562 -1.5469,0 z m 10.5234,4.5937 c -0.0468,-0.0312 -0.1172,-0.1093 -0.2109,-0.2343 -0.1094,-0.1094 -0.1953,-0.2266 -0.2578,-0.3516 -0.0625,-0.125 -0.0859,-0.2344 -0.0703,-0.3281 0,-0.0938 0.0859,-0.1407 0.2578,-0.1407 0.3281,0.4532 0.789,0.625 1.3828,0.5157 0.5938,-0.1094 1.2344,-0.3828 1.9219,-0.8203 0.6875,-0.4219 1.3828,-0.961 2.0859,-1.6172 0.7188,-0.6406 1.3594,-1.2813 1.9219,-1.9219 0.5781,-0.6406 1.0469,-1.2187 1.4062,-1.7344 0.375,-0.5156 0.5625,-0.8593 0.5625,-1.0312 0,-0.0469 -0.0625,-0.1172 -0.1875,-0.211 -0.125,-0.1093 -0.2734,-0.2187 -0.4453,-0.3281 -0.1562,-0.1094 -0.3047,-0.2109 -0.4453,-0.3047 -0.1406,-0.0937 -0.2265,-0.164 -0.2578,-0.2109 0.0469,-0.1563 0.1953,-0.2734 0.4453,-0.3516 0.25,-0.0937 0.5313,-0.1718 0.8438,-0.2344 0.3125,-0.0781 0.6172,-0.1484 0.914,-0.2109 0.3125,-0.0781 0.5469,-0.1719 0.7032,-0.2812 0.8281,-1.2032 1.5468,-2.2813 2.1562,-3.2344 0.625,-0.9688 1.2109,-1.9141 1.7578,-2.8359 0.5625,-0.9376 1.1328,-1.8985 1.711,-2.8829 0.5781,-0.9843 1.2421,-2.0937 1.9921,-3.3281 0.2032,-0.3437 0.3672,-0.4609 0.4922,-0.3516 0.125,0.1094 0.2188,0.375 0.2813,0.7969 0.0625,0.4219 0.1015,0.961 0.1172,1.6172 0.0156,0.6406 0.0156,1.3359 0,2.0859 -0.0157,0.75 -0.0469,1.5157 -0.0938,2.2969 -0.0312,0.7813 -0.0703,1.5 -0.1172,2.1563 -0.0312,0.6562 -0.0625,1.2265 -0.0937,1.7109 -0.0157,0.4688 -0.0157,0.7735 0,0.9141 0.0625,0.7968 0.1015,1.4922 0.1172,2.0859 0.0312,0.5781 0.1093,1.1172 0.2343,1.6172 0.125,0.4844 0.336,0.9609 0.6328,1.4297 0.3126,0.4531 0.7813,0.9531 1.4063,1.5 -0.5156,0.1719 -0.9453,0.1562 -1.2891,-0.0469 -0.3281,-0.1875 -0.6015,-0.4765 -0.8203,-0.8672 -0.2031,-0.4062 -0.375,-0.8672 -0.5156,-1.3828 -0.125,-0.5312 -0.25,-1.0391 -0.375,-1.5234 -0.1094,-0.5 -0.2422,-0.9297 -0.3984,-1.2891 -0.1407,-0.375 -0.336,-0.6172 -0.586,-0.7266 -0.0156,0 -0.0625,0 -0.1406,0 -0.0625,-0.0156 -0.1406,-0.0234 -0.2344,-0.0234 -0.0781,0 -0.1562,0.0078 -0.2343,0.0234 -0.0782,0 -0.1329,0 -0.1641,0 -0.1406,0.0313 -0.4063,0.0938 -0.7969,0.1876 -0.375,0.0937 -0.789,0.1953 -1.2422,0.3046 -0.4531,0.1094 -0.8906,0.2188 -1.3125,0.3282 -0.4062,0.1093 -0.7031,0.1875 -0.8906,0.2343 -0.3906,0.1094 -0.8047,0.3594 -1.2422,0.75 -0.4219,0.3907 -0.875,0.8672 -1.3594,1.4297 -0.4687,0.5469 -0.9609,1.1485 -1.4765,1.8047 -0.5,0.6563 -1.0156,1.2969 -1.5469,1.9219 -0.5313,0.625 -1.0703,1.2031 -1.6172,1.7344 -0.5469,0.5312 -1.0937,0.9609 -1.6406,1.289 -0.5469,0.3282 -1.0938,0.5078 -1.6406,0.5391 -0.5625,0.0469 -1.1094,-0.1094 -1.6407,-0.4688 z m 12.7032,-10.3125 c 0.0312,0.0157 0.1093,0.0235 0.2343,0.0235 0.1407,0 0.2344,-0.0078 0.2813,-0.0235 0.2812,-0.0468 0.6328,-0.1015 1.0547,-0.164 0.4219,-0.0625 0.8437,-0.1328 1.2656,-0.211 0.4219,-0.0937 0.8125,-0.1953 1.1719,-0.3046 0.3594,-0.125 0.6094,-0.2579 0.75,-0.3985 0,0 0.0234,-0.1641 0.0703,-0.4922 0.0469,-0.3281 0.1015,-0.7422 0.1641,-1.2422 0.0624,-0.5156 0.125,-1.0781 0.1874,-1.6875 0.0782,-0.625 0.1485,-1.2343 0.211,-1.8281 0.0625,-0.5937 0.1094,-1.1406 0.1406,-1.6406 0.0469,-0.5156 0.0781,-0.9141 0.0938,-1.1953 -0.1719,-0.0782 -0.3985,0.125 -0.6797,0.6094 -0.2813,0.4687 -0.6485,1.1171 -1.1016,1.9453 -0.4375,0.8281 -0.9765,1.7968 -1.6172,2.9062 -0.625,1.0938 -1.3672,2.2344 -2.2265,3.4219 z m 13.0544,5.7188 c -0.094,-0.3906 -0.094,-0.836 0,-1.336 0.11,-0.5156 0.258,-1.0312 0.446,-1.5468 0.187,-0.5156 0.39,-1.0078 0.609,-1.4766 0.219,-0.4844 0.398,-0.8828 0.539,-1.1953 0.078,-0.1875 0.195,-0.4609 0.352,-0.8203 0.171,-0.3594 0.359,-0.7656 0.562,-1.2188 0.219,-0.4531 0.438,-0.9296 0.656,-1.4296 0.235,-0.5 0.453,-0.9766 0.657,-1.4297 0.218,-0.4532 0.406,-0.8516 0.562,-1.1953 0.172,-0.3594 0.297,-0.625 0.375,-0.7969 -0.266,-0.0469 -0.648,-0.0235 -1.148,0.0703 -0.485,0.0937 -1.024,0.2187 -1.618,0.375 -0.593,0.1406 -1.203,0.289 -1.828,0.4453 -0.625,0.1563 -1.211,0.2734 -1.758,0.3516 -0.5308,0.0625 -0.9917,0.0703 -1.3823,0.0234 -0.375,-0.0625 -0.6094,-0.2266 -0.7031,-0.4922 0.1093,-0.2031 0.5078,-0.4375 1.1953,-0.7031 0.6871,-0.2656 1.5621,-0.5391 2.6251,-0.8203 1.078,-0.2969 2.273,-0.5938 3.586,-0.8907 1.328,-0.2968 2.679,-0.5781 4.055,-0.8437 1.374,-0.2656 2.718,-0.5078 4.031,-0.7266 1.312,-0.2187 2.484,-0.3984 3.515,-0.539 1.032,-0.1407 1.86,-0.2344 2.485,-0.2813 0.64,-0.0468 0.976,-0.0312 1.008,0.0469 0.046,0.125 0.054,0.2813 0.023,0.4687 -0.031,0.1719 -0.133,0.2813 -0.305,0.3282 -0.765,0.125 -1.593,0.2656 -2.484,0.4218 -0.891,0.1407 -1.797,0.2969 -2.719,0.4688 -0.906,0.1562 -1.797,0.3203 -2.672,0.4922 -0.875,0.1562 -1.687,0.3125 -2.437,0.4687 -0.485,0.0938 -0.953,0.375 -1.406,0.8438 -0.454,0.4687 -0.891,1.0547 -1.313,1.7578 -0.422,0.6875 -0.828,1.4609 -1.219,2.3203 -0.39,0.8438 -0.765,1.7031 -1.125,2.5781 -0.343,0.875 -0.664,1.7188 -0.961,2.5313 -0.297,0.8125 -0.57,1.5312 -0.82,2.1562 -0.25,0.6094 -0.469,1.086 -0.656,1.4297 -0.188,0.3438 -0.344,0.4844 -0.469,0.4219 -0.031,-0.0312 -0.078,-0.0781 -0.141,-0.1406 -0.062,-0.0625 -0.101,-0.1016 -0.117,-0.1172 z"
     fill="#ffffff"
     id="path34" />
</svg>
