<svg width="360" height="69" viewBox="0 0 360 69" fill="none" xmlns="http://www.w3.org/2000/svg">
<path d="M159.375 11.65C156.75 13.3 156.825 30.775 159.975 36.4L179.55 24.4C176.55 19.075 161.85 10.15 159.375 11.65Z" fill="#4C5359"/>
<path d="M163.125 18.475C162 19.15 161.475 30.625 163.425 34.225L175.95 26.575C174.15 23.125 164.175 17.875 163.125 18.475Z" fill="#F7A4A4"/>
<path d="M200.625 11.65C203.25 13.3 203.175 30.775 200.1 36.4L180.525 24.4C183.45 19.075 198.15 10.15 200.625 11.65Z" fill="#4C5359"/>
<path d="M196.875 18.475C198 19.15 198.525 30.625 196.575 34.225L183.975 26.575C185.85 23.125 195.825 17.875 196.875 18.475Z" fill="#F7A4A4"/>
<path d="M179.85 19.825C159.525 19.825 157.65 34.375 157.65 42.625C157.65 46 167.55 56.5 179.85 56.5C192.15 56.5 202.05 46 202.05 42.625C202.05 34.375 200.175 19.825 179.85 19.825Z" fill="#4C5359"/>
<path d="M174.15 39.025C174.15 39.025 171.825 42.625 167.55 41.5C163.275 40.375 163.05 36.1 163.05 36.1C163.05 36.1 165.375 32.5 169.65 33.625C174 34.75 174.15 39.025 174.15 39.025Z" fill="#BFFFAB"/>
<path d="M173.7 37.15C173.7 37.15 171.675 39.4 168.825 39.4C165.75 39.4 163.95 34.975 163.95 34.975C163.95 34.975 165.975 32.65 169.65 33.55C173.025 34.45 173.7 37.15 173.7 37.15Z" fill="#93E67F"/>
<path d="M170.55 37.075C170.55 42.025 168.15 42.025 168.15 37.075C168.225 32.125 170.55 32.125 170.55 37.075Z" fill="#4C5359"/>
<path d="M185.55 39.025C185.55 39.025 187.875 42.625 192.15 41.5C196.425 40.375 196.65 36.1 196.65 36.1C196.65 36.1 194.325 32.5 190.05 33.625C185.7 34.75 185.55 39.025 185.55 39.025Z" fill="#BFFFAB"/>
<path d="M185.925 37.15C185.925 37.15 187.95 39.4 190.8 39.4C193.875 39.4 195.675 34.975 195.675 34.975C195.675 34.975 193.65 32.65 189.975 33.55C186.6 34.45 185.925 37.15 185.925 37.15Z" fill="#93E67F"/>
<path d="M189.075 37.075C189.075 42.025 191.475 42.025 191.475 37.075C191.475 32.125 189.075 32.125 189.075 37.075Z" fill="#4C5359"/>
<path d="M186.3 43C184.35 41.5 182.25 36.475 179.85 36.475C177.45 36.475 175.275 41.5 173.325 43C170.25 45.4 162.075 48.1 162.075 48.1C162.075 48.1 170.775 55.75 179.775 55.75C188.775 55.75 197.475 48.1 197.475 48.1C197.55 48.1 189.375 45.4 186.3 43Z" fill="white"/>
<path d="M179.85 52.75C180.554 52.75 181.125 51.9105 181.125 50.875C181.125 49.8395 180.554 49 179.85 49C179.146 49 178.575 49.8395 178.575 50.875C178.575 51.9105 179.146 52.75 179.85 52.75Z" fill="#FF94A4"/>
<path d="M186.15 49.825C185.4 50.275 184.575 50.425 183.825 50.425C183 50.35 182.25 50.125 181.65 49.6C181.05 49.15 180.6 48.475 180.45 47.65L179.85 44.275L179.25 47.65C179.1 48.4 178.65 49.075 178.05 49.6C177.45 50.125 176.625 50.35 175.875 50.425C175.05 50.425 174.225 50.275 173.55 49.825C172.8 49.375 172.2 48.7 171.9 47.8C171.975 48.775 172.425 49.675 173.175 50.35C173.925 51.025 174.9 51.4 175.8 51.4C176.85 51.475 177.825 51.175 178.65 50.575C179.1 50.275 179.475 49.825 179.775 49.375C180.075 49.825 180.45 50.275 180.9 50.575C181.725 51.175 182.775 51.475 183.75 51.4C184.725 51.325 185.7 50.95 186.45 50.35C187.2 49.675 187.725 48.775 187.725 47.8C187.5 48.625 186.9 49.375 186.15 49.825Z" fill="#4C5359"/>
<path d="M182.85 43.6C182.25 42.85 180.375 42.775 179.85 42.775C179.325 42.775 177.45 42.85 176.85 43.6C176.4 44.125 176.775 45.475 177.9 46.6C178.65 47.35 179.325 47.575 179.85 47.575C180.375 47.575 181.125 47.35 181.8 46.6C182.925 45.4 183.3 44.125 182.85 43.6Z" fill="#4C5359"/>
<path d="M253.43 45.7422C253.336 45.3516 253.336 44.9062 253.43 44.4062C253.539 43.8906 253.688 43.375 253.875 42.8594C254.062 42.3438 254.266 41.8516 254.484 41.3828C254.703 40.8984 254.883 40.5 255.023 40.1875C255.102 40 255.219 39.7266 255.375 39.3672C255.547 39.0078 255.734 38.6016 255.938 38.1484C256.156 37.6953 256.375 37.2188 256.594 36.7188C256.828 36.2188 257.047 35.7422 257.25 35.2891C257.469 34.8359 257.656 34.4375 257.812 34.0938C257.984 33.7344 258.109 33.4688 258.188 33.2969C257.922 33.25 257.539 33.2734 257.039 33.3672C256.555 33.4609 256.016 33.5859 255.422 33.7422C254.828 33.8828 254.219 34.0312 253.594 34.1875C252.969 34.3438 252.383 34.4609 251.836 34.5391C251.305 34.6016 250.844 34.6094 250.453 34.5625C250.078 34.5 249.844 34.3359 249.75 34.0703C249.859 33.8672 250.258 33.6328 250.945 33.3672C251.633 33.1016 252.508 32.8281 253.57 32.5469C254.648 32.25 255.844 31.9531 257.156 31.6562C258.484 31.3594 259.836 31.0781 261.211 30.8125C262.586 30.5469 263.93 30.3047 265.242 30.0859C266.555 29.8672 267.727 29.6875 268.758 29.5469C269.789 29.4062 270.617 29.3125 271.242 29.2656C271.883 29.2188 272.219 29.2344 272.25 29.3125C272.297 29.4375 272.305 29.5938 272.273 29.7812C272.242 29.9531 272.141 30.0625 271.969 30.1094C271.203 30.2344 270.375 30.375 269.484 30.5312C268.594 30.6719 267.688 30.8281 266.766 31C265.859 31.1562 264.969 31.3203 264.094 31.4922C263.219 31.6484 262.406 31.8047 261.656 31.9609C261.172 32.0547 260.703 32.3359 260.25 32.8047C259.797 33.2734 259.359 33.8594 258.938 34.5625C258.516 35.25 258.109 36.0234 257.719 36.8828C257.328 37.7266 256.953 38.5859 256.594 39.4609C256.25 40.3359 255.93 41.1797 255.633 41.9922C255.336 42.8047 255.062 43.5234 254.812 44.1484C254.562 44.7578 254.344 45.2344 254.156 45.5781C253.969 45.9219 253.812 46.0625 253.688 46C253.656 45.9688 253.609 45.9219 253.547 45.8594C253.484 45.7969 253.445 45.7578 253.43 45.7422ZM260.602 50.3359C260.555 50.3047 260.484 50.2266 260.391 50.1016C260.281 49.9922 260.195 49.875 260.133 49.75C260.07 49.625 260.047 49.5156 260.062 49.4219C260.062 49.3281 260.148 49.2812 260.32 49.2812C260.648 49.7344 261.109 49.9062 261.703 49.7969C262.297 49.6875 262.938 49.4141 263.625 48.9766C264.312 48.5547 265.008 48.0156 265.711 47.3594C266.43 46.7188 267.07 46.0781 267.633 45.4375C268.211 44.7969 268.68 44.2188 269.039 43.7031C269.414 43.1875 269.602 42.8438 269.602 42.6719C269.602 42.625 269.539 42.5547 269.414 42.4609C269.289 42.3516 269.141 42.2422 268.969 42.1328C268.812 42.0234 268.664 41.9219 268.523 41.8281C268.383 41.7344 268.297 41.6641 268.266 41.6172C268.312 41.4609 268.461 41.3438 268.711 41.2656C268.961 41.1719 269.242 41.0938 269.555 41.0312C269.867 40.9531 270.172 40.8828 270.469 40.8203C270.781 40.7422 271.016 40.6484 271.172 40.5391C272 39.3359 272.719 38.2578 273.328 37.3047C273.953 36.3359 274.539 35.3906 275.086 34.4688C275.648 33.5312 276.219 32.5703 276.797 31.5859C277.375 30.6016 278.039 29.4922 278.789 28.2578C278.992 27.9141 279.156 27.7969 279.281 27.9062C279.406 28.0156 279.5 28.2812 279.562 28.7031C279.625 29.125 279.664 29.6641 279.68 30.3203C279.695 30.9609 279.695 31.6562 279.68 32.4062C279.664 33.1562 279.633 33.9219 279.586 34.7031C279.555 35.4844 279.516 36.2031 279.469 36.8594C279.438 37.5156 279.406 38.0859 279.375 38.5703C279.359 39.0391 279.359 39.3438 279.375 39.4844C279.438 40.2812 279.477 40.9766 279.492 41.5703C279.523 42.1484 279.602 42.6875 279.727 43.1875C279.852 43.6719 280.062 44.1484 280.359 44.6172C280.672 45.0703 281.141 45.5703 281.766 46.1172C281.25 46.2891 280.82 46.2734 280.477 46.0703C280.148 45.8828 279.875 45.5938 279.656 45.2031C279.453 44.7969 279.281 44.3359 279.141 43.8203C279.016 43.2891 278.891 42.7812 278.766 42.2969C278.656 41.7969 278.523 41.3672 278.367 41.0078C278.227 40.6328 278.031 40.3906 277.781 40.2812C277.766 40.2812 277.719 40.2812 277.641 40.2812C277.578 40.2656 277.5 40.2578 277.406 40.2578C277.328 40.2578 277.25 40.2656 277.172 40.2812C277.094 40.2812 277.039 40.2812 277.008 40.2812C276.867 40.3125 276.602 40.375 276.211 40.4688C275.836 40.5625 275.422 40.6641 274.969 40.7734C274.516 40.8828 274.078 40.9922 273.656 41.1016C273.25 41.2109 272.953 41.2891 272.766 41.3359C272.375 41.4453 271.961 41.6953 271.523 42.0859C271.102 42.4766 270.648 42.9531 270.164 43.5156C269.695 44.0625 269.203 44.6641 268.688 45.3203C268.188 45.9766 267.672 46.6172 267.141 47.2422C266.609 47.8672 266.07 48.4453 265.523 48.9766C264.977 49.5078 264.43 49.9375 263.883 50.2656C263.336 50.5938 262.789 50.7734 262.242 50.8047C261.68 50.8516 261.133 50.6953 260.602 50.3359ZM273.305 40.0234C273.336 40.0391 273.414 40.0469 273.539 40.0469C273.68 40.0469 273.773 40.0391 273.82 40.0234C274.102 39.9766 274.453 39.9219 274.875 39.8594C275.297 39.7969 275.719 39.7266 276.141 39.6484C276.562 39.5547 276.953 39.4531 277.312 39.3438C277.672 39.2188 277.922 39.0859 278.062 38.9453C278.062 38.9453 278.086 38.7812 278.133 38.4531C278.18 38.125 278.234 37.7109 278.297 37.2109C278.359 36.6953 278.422 36.1328 278.484 35.5234C278.562 34.8984 278.633 34.2891 278.695 33.6953C278.758 33.1016 278.805 32.5547 278.836 32.0547C278.883 31.5391 278.914 31.1406 278.93 30.8594C278.758 30.7812 278.531 30.9844 278.25 31.4688C277.969 31.9375 277.602 32.5859 277.148 33.4141C276.711 34.2422 276.172 35.2109 275.531 36.3203C274.906 37.4141 274.164 38.5547 273.305 39.7422V40.0234ZM284.391 45.7422C284.312 45.7109 284.125 45.625 283.828 45.4844C283.547 45.3438 283.281 45.1797 283.031 44.9922C282.781 44.8047 282.602 44.6094 282.492 44.4062C282.398 44.2031 282.5 44.0312 282.797 43.8906C282.969 44.0469 283.203 44.2344 283.5 44.4531C283.812 44.6719 284.109 44.8359 284.391 44.9453C285.25 44.9922 286.086 45 286.898 44.9688C287.711 44.9219 288.5 44.8203 289.266 44.6641C290.047 44.4922 290.797 44.2422 291.516 43.9141C292.25 43.5703 292.961 43.125 293.648 42.5781C294.414 41.9375 294.914 41.3516 295.148 40.8203C295.398 40.2734 295.445 39.7734 295.289 39.3203C295.148 38.8516 294.844 38.4219 294.375 38.0312C293.922 37.625 293.375 37.25 292.734 36.9062C292.109 36.5469 291.438 36.2188 290.719 35.9219C290 35.6094 289.312 35.3125 288.656 35.0312C288 34.7344 287.406 34.4453 286.875 34.1641C286.344 33.8828 285.953 33.5938 285.703 33.2969C285.641 33.0312 285.773 32.7188 286.102 32.3594C286.43 32 286.883 31.6328 287.461 31.2578C288.039 30.8672 288.703 30.4844 289.453 30.1094C290.203 29.7188 290.969 29.3672 291.75 29.0547C292.547 28.7422 293.312 28.4766 294.047 28.2578C294.797 28.0391 295.453 27.9062 296.016 27.8594C296.578 27.7969 297.008 27.8359 297.305 27.9766C297.602 28.1172 297.703 28.3828 297.609 28.7734C297.5 28.7891 297.219 28.8594 296.766 28.9844C296.312 29.1094 295.758 29.2656 295.102 29.4531C294.461 29.6406 293.758 29.8594 292.992 30.1094C292.242 30.3594 291.5 30.625 290.766 30.9062C290.031 31.1719 289.352 31.4453 288.727 31.7266C288.102 32.0078 287.609 32.2812 287.25 32.5469C286.891 32.8125 286.688 33.0547 286.641 33.2734C286.609 33.4922 286.82 33.6797 287.273 33.8359C289.555 34.5234 291.344 35.2578 292.641 36.0391C293.953 36.8047 294.875 37.5859 295.406 38.3828C295.938 39.1641 296.141 39.9375 296.016 40.7031C295.891 41.4688 295.547 42.1797 294.984 42.8359C294.438 43.4922 293.719 44.0781 292.828 44.5938C291.938 45.0938 290.992 45.4844 289.992 45.7656C289.008 46.0469 288.016 46.1953 287.016 46.2109C286.031 46.2266 285.156 46.0703 284.391 45.7422ZM313.336 48.1562C312.836 47.3594 312.336 46.6328 311.836 45.9766C311.352 45.3203 310.844 44.6875 310.312 44.0781C309.781 43.4531 309.219 42.8281 308.625 42.2031C308.047 41.5781 307.414 40.9141 306.727 40.2109C305.742 39.1797 304.922 38.4141 304.266 37.9141C303.625 37.4141 303.086 37.125 302.648 37.0469C302.227 36.9688 301.875 37.0938 301.594 37.4219C301.312 37.7344 301.039 38.2031 300.773 38.8281C300.508 39.4375 300.227 40.1797 299.93 41.0547C299.633 41.9297 299.25 42.8828 298.781 43.9141C298.625 44.2422 298.445 44.625 298.242 45.0625C298.055 45.4844 297.789 45.8125 297.445 46.0469C297.18 46.2188 297.062 46.1406 297.094 45.8125C297.125 45.4688 297.25 44.9844 297.469 44.3594C297.688 43.7344 297.961 43.0312 298.289 42.25C298.633 41.4531 298.969 40.6875 299.297 39.9531C299.625 39.2188 299.914 38.5859 300.164 38.0547C300.414 37.5078 300.57 37.1719 300.633 37.0469C301.008 36.1562 301.391 35.3438 301.781 34.6094C302.172 33.8594 302.555 33.125 302.93 32.4062C303.32 31.6875 303.695 30.9531 304.055 30.2031C304.43 29.4531 304.773 28.625 305.086 27.7188C305.227 27.625 305.352 27.6016 305.461 27.6484C305.57 27.6797 305.664 27.7422 305.742 27.8359C305.82 27.9297 305.867 28.0469 305.883 28.1875C305.914 28.3125 305.914 28.4219 305.883 28.5156C305.789 28.7031 305.641 29 305.438 29.4062C305.25 29.7969 305.047 30.2109 304.828 30.6484C304.625 31.0703 304.43 31.4844 304.242 31.8906C304.055 32.2812 303.914 32.5781 303.82 32.7812C303.789 32.8594 303.727 33.0234 303.633 33.2734C303.539 33.5078 303.508 33.7031 303.539 33.8594C303.992 33.9531 304.555 33.9141 305.227 33.7422C305.914 33.5703 306.648 33.3203 307.43 32.9922C308.227 32.6641 309.047 32.2891 309.891 31.8672C310.75 31.4297 311.562 31 312.328 30.5781C313.109 30.1562 313.812 29.7656 314.438 29.4062C315.078 29.0312 315.594 28.75 315.984 28.5625C316.359 28.375 316.555 28.3438 316.57 28.4688C316.586 28.5938 316.5 28.7812 316.312 29.0312C316.141 29.2812 315.914 29.5469 315.633 29.8281C315.367 30.0938 315.133 30.2812 314.93 30.3906C314.773 30.4844 314.539 30.6172 314.227 30.7891C313.914 30.9453 313.586 31.1094 313.242 31.2812C312.898 31.4375 312.586 31.5859 312.305 31.7266C312.023 31.8672 311.836 31.9531 311.742 31.9844C311.32 32.1719 310.789 32.3828 310.148 32.6172C309.508 32.8516 308.836 33.1016 308.133 33.3672C307.445 33.6328 306.758 33.9219 306.07 34.2344C305.398 34.5312 304.82 34.8438 304.336 35.1719C304.211 35.2656 304.102 35.3594 304.008 35.4531C303.93 35.5312 303.859 35.6172 303.797 35.7109C303.75 35.8047 303.758 35.8906 303.82 35.9688C304.055 36.1094 304.414 36.3906 304.898 36.8125C305.383 37.2344 305.93 37.7344 306.539 38.3125C307.148 38.8906 307.789 39.5312 308.461 40.2344C309.148 40.9375 309.812 41.6484 310.453 42.3672C311.094 43.0859 311.68 43.7891 312.211 44.4766C312.742 45.1641 313.164 45.7812 313.477 46.3281C313.805 46.8906 313.992 47.3594 314.039 47.7344C314.086 48.1094 313.938 48.3359 313.594 48.4141C313.562 48.3984 313.516 48.3594 313.453 48.2969C313.406 48.2344 313.367 48.1875 313.336 48.1562ZM317.414 45.7422C317.336 45.7109 317.148 45.625 316.852 45.4844C316.57 45.3438 316.305 45.1797 316.055 44.9922C315.805 44.8047 315.625 44.6094 315.516 44.4062C315.422 44.2031 315.523 44.0312 315.82 43.8906C315.992 44.0469 316.227 44.2344 316.523 44.4531C316.836 44.6719 317.133 44.8359 317.414 44.9453C318.273 44.9922 319.109 45 319.922 44.9688C320.734 44.9219 321.523 44.8203 322.289 44.6641C323.07 44.4922 323.82 44.2422 324.539 43.9141C325.273 43.5703 325.984 43.125 326.672 42.5781C327.438 41.9375 327.938 41.3516 328.172 40.8203C328.422 40.2734 328.469 39.7734 328.312 39.3203C328.172 38.8516 327.867 38.4219 327.398 38.0312C326.945 37.625 326.398 37.25 325.758 36.9062C325.133 36.5469 324.461 36.2188 323.742 35.9219C323.023 35.6094 322.336 35.3125 321.68 35.0312C321.023 34.7344 320.43 34.4453 319.898 34.1641C319.367 33.8828 318.977 33.5938 318.727 33.2969C318.664 33.0312 318.797 32.7188 319.125 32.3594C319.453 32 319.906 31.6328 320.484 31.2578C321.062 30.8672 321.727 30.4844 322.477 30.1094C323.227 29.7188 323.992 29.3672 324.773 29.0547C325.57 28.7422 326.336 28.4766 327.07 28.2578C327.82 28.0391 328.477 27.9062 329.039 27.8594C329.602 27.7969 330.031 27.8359 330.328 27.9766C330.625 28.1172 330.727 28.3828 330.633 28.7734C330.523 28.7891 330.242 28.8594 329.789 28.9844C329.336 29.1094 328.781 29.2656 328.125 29.4531C327.484 29.6406 326.781 29.8594 326.016 30.1094C325.266 30.3594 324.523 30.625 323.789 30.9062C323.055 31.1719 322.375 31.4453 321.75 31.7266C321.125 32.0078 320.633 32.2812 320.273 32.5469C319.914 32.8125 319.711 33.0547 319.664 33.2734C319.633 33.4922 319.844 33.6797 320.297 33.8359C322.578 34.5234 324.367 35.2578 325.664 36.0391C326.977 36.8047 327.898 37.5859 328.43 38.3828C328.961 39.1641 329.164 39.9375 329.039 40.7031C328.914 41.4688 328.57 42.1797 328.008 42.8359C327.461 43.4922 326.742 44.0781 325.852 44.5938C324.961 45.0938 324.016 45.4844 323.016 45.7656C322.031 46.0469 321.039 46.1953 320.039 46.2109C319.055 46.2266 318.18 46.0703 317.414 45.7422Z" fill="white"/>
<path d="M65.625 45.7422C64.6719 45.3672 64.0156 44.8594 63.6562 44.2188C63.2969 43.5781 63.1484 42.8672 63.2109 42.0859C63.2891 41.2891 63.5391 40.4453 63.9609 39.5547C64.3984 38.6484 64.9297 37.7422 65.5547 36.8359C66.1953 35.9297 66.8984 35.0469 67.6641 34.1875C68.4297 33.3281 69.1875 32.5391 69.9375 31.8203C70.6875 31.1016 71.3906 30.4766 72.0469 29.9453C72.7031 29.4141 73.2344 29.0234 73.6406 28.7734C74.2031 28.4297 74.6719 28.2656 75.0469 28.2812C75.4219 28.2812 75.7188 28.3984 75.9375 28.6328C76.1719 28.8516 76.3281 29.1641 76.4062 29.5703C76.5 29.9609 76.5391 30.3828 76.5234 30.8359C76.5234 31.2734 76.4766 31.7188 76.3828 32.1719C76.3047 32.6094 76.1953 32.9922 76.0547 33.3203C75.9297 33.6484 75.7891 33.8906 75.6328 34.0469C75.4922 34.2031 75.3516 34.2109 75.2109 34.0703C75.1953 33.9453 75.2109 33.7578 75.2578 33.5078C75.3047 33.2422 75.3594 32.9453 75.4219 32.6172C75.5 32.2891 75.5703 31.9531 75.6328 31.6094C75.6953 31.2656 75.7344 30.9531 75.75 30.6719C75.7812 30.375 75.7734 30.125 75.7266 29.9219C75.6953 29.7188 75.6094 29.6016 75.4688 29.5703C74.9219 29.4297 74.2656 29.5625 73.5 29.9688C72.75 30.3594 71.9609 30.9297 71.1328 31.6797C70.3203 32.4141 69.5078 33.2734 68.6953 34.2578C67.8984 35.2266 67.1719 36.2266 66.5156 37.2578C65.8594 38.2891 65.3203 39.2969 64.8984 40.2812C64.4766 41.25 64.2344 42.1094 64.1719 42.8594C64.125 43.5938 64.2891 44.1641 64.6641 44.5703C65.0547 44.9609 65.7344 45.0859 66.7031 44.9453C67.5938 44.8203 68.4141 44.5078 69.1641 44.0078C69.9297 43.4922 70.6641 42.9297 71.3672 42.3203C72.0859 41.6953 72.7969 41.0859 73.5 40.4922C74.2031 39.8828 74.9375 39.4219 75.7031 39.1094C75.9844 39 76.2031 39.0391 76.3594 39.2266C76.5312 39.4141 76.5781 39.6406 76.5 39.9062C76.4062 40.1719 76.125 40.5234 75.6562 40.9609C75.2031 41.3984 74.6328 41.8594 73.9453 42.3438C73.2734 42.8125 72.5312 43.2891 71.7188 43.7734C70.9062 44.2422 70.1094 44.6484 69.3281 44.9922C68.5625 45.3359 67.8438 45.5859 67.1719 45.7422C66.5156 45.8984 66 45.8984 65.625 45.7422ZM76.1484 50.3359C76.1016 50.3047 76.0312 50.2266 75.9375 50.1016C75.8281 49.9922 75.7422 49.875 75.6797 49.75C75.6172 49.625 75.5938 49.5156 75.6094 49.4219C75.6094 49.3281 75.6953 49.2812 75.8672 49.2812C76.1953 49.7344 76.6562 49.9062 77.25 49.7969C77.8438 49.6875 78.4844 49.4141 79.1719 48.9766C79.8594 48.5547 80.5547 48.0156 81.2578 47.3594C81.9766 46.7188 82.6172 46.0781 83.1797 45.4375C83.7578 44.7969 84.2266 44.2188 84.5859 43.7031C84.9609 43.1875 85.1484 42.8438 85.1484 42.6719C85.1484 42.625 85.0859 42.5547 84.9609 42.4609C84.8359 42.3516 84.6875 42.2422 84.5156 42.1328C84.3594 42.0234 84.2109 41.9219 84.0703 41.8281C83.9297 41.7344 83.8438 41.6641 83.8125 41.6172C83.8594 41.4609 84.0078 41.3438 84.2578 41.2656C84.5078 41.1719 84.7891 41.0938 85.1016 41.0312C85.4141 40.9531 85.7188 40.8828 86.0156 40.8203C86.3281 40.7422 86.5625 40.6484 86.7188 40.5391C87.5469 39.3359 88.2656 38.2578 88.875 37.3047C89.5 36.3359 90.0859 35.3906 90.6328 34.4688C91.1953 33.5312 91.7656 32.5703 92.3438 31.5859C92.9219 30.6016 93.5859 29.4922 94.3359 28.2578C94.5391 27.9141 94.7031 27.7969 94.8281 27.9062C94.9531 28.0156 95.0469 28.2812 95.1094 28.7031C95.1719 29.125 95.2109 29.6641 95.2266 30.3203C95.2422 30.9609 95.2422 31.6562 95.2266 32.4062C95.2109 33.1562 95.1797 33.9219 95.1328 34.7031C95.1016 35.4844 95.0625 36.2031 95.0156 36.8594C94.9844 37.5156 94.9531 38.0859 94.9219 38.5703C94.9062 39.0391 94.9062 39.3438 94.9219 39.4844C94.9844 40.2812 95.0234 40.9766 95.0391 41.5703C95.0703 42.1484 95.1484 42.6875 95.2734 43.1875C95.3984 43.6719 95.6094 44.1484 95.9062 44.6172C96.2188 45.0703 96.6875 45.5703 97.3125 46.1172C96.7969 46.2891 96.3672 46.2734 96.0234 46.0703C95.6953 45.8828 95.4219 45.5938 95.2031 45.2031C95 44.7969 94.8281 44.3359 94.6875 43.8203C94.5625 43.2891 94.4375 42.7812 94.3125 42.2969C94.2031 41.7969 94.0703 41.3672 93.9141 41.0078C93.7734 40.6328 93.5781 40.3906 93.3281 40.2812C93.3125 40.2812 93.2656 40.2812 93.1875 40.2812C93.125 40.2656 93.0469 40.2578 92.9531 40.2578C92.875 40.2578 92.7969 40.2656 92.7188 40.2812C92.6406 40.2812 92.5859 40.2812 92.5547 40.2812C92.4141 40.3125 92.1484 40.375 91.7578 40.4688C91.3828 40.5625 90.9688 40.6641 90.5156 40.7734C90.0625 40.8828 89.625 40.9922 89.2031 41.1016C88.7969 41.2109 88.5 41.2891 88.3125 41.3359C87.9219 41.4453 87.5078 41.6953 87.0703 42.0859C86.6484 42.4766 86.1953 42.9531 85.7109 43.5156C85.2422 44.0625 84.75 44.6641 84.2344 45.3203C83.7344 45.9766 83.2188 46.6172 82.6875 47.2422C82.1562 47.8672 81.6172 48.4453 81.0703 48.9766C80.5234 49.5078 79.9766 49.9375 79.4297 50.2656C78.8828 50.5938 78.3359 50.7734 77.7891 50.8047C77.2266 50.8516 76.6797 50.6953 76.1484 50.3359ZM88.8516 40.0234C88.8828 40.0391 88.9609 40.0469 89.0859 40.0469C89.2266 40.0469 89.3203 40.0391 89.3672 40.0234C89.6484 39.9766 90 39.9219 90.4219 39.8594C90.8438 39.7969 91.2656 39.7266 91.6875 39.6484C92.1094 39.5547 92.5 39.4531 92.8594 39.3438C93.2188 39.2188 93.4688 39.0859 93.6094 38.9453C93.6094 38.9453 93.6328 38.7812 93.6797 38.4531C93.7266 38.125 93.7812 37.7109 93.8438 37.2109C93.9062 36.6953 93.9688 36.1328 94.0312 35.5234C94.1094 34.8984 94.1797 34.2891 94.2422 33.6953C94.3047 33.1016 94.3516 32.5547 94.3828 32.0547C94.4297 31.5391 94.4609 31.1406 94.4766 30.8594C94.3047 30.7812 94.0781 30.9844 93.7969 31.4688C93.5156 31.9375 93.1484 32.5859 92.6953 33.4141C92.2578 34.2422 91.7188 35.2109 91.0781 36.3203C90.4531 37.4141 89.7109 38.5547 88.8516 39.7422V40.0234ZM101.906 45.7422C101.812 45.3516 101.812 44.9062 101.906 44.4062C102.016 43.8906 102.164 43.375 102.352 42.8594C102.539 42.3438 102.742 41.8516 102.961 41.3828C103.18 40.8984 103.359 40.5 103.5 40.1875C103.578 40 103.695 39.7266 103.852 39.3672C104.023 39.0078 104.211 38.6016 104.414 38.1484C104.633 37.6953 104.852 37.2188 105.07 36.7188C105.305 36.2188 105.523 35.7422 105.727 35.2891C105.945 34.8359 106.133 34.4375 106.289 34.0938C106.461 33.7344 106.586 33.4688 106.664 33.2969C106.398 33.25 106.016 33.2734 105.516 33.3672C105.031 33.4609 104.492 33.5859 103.898 33.7422C103.305 33.8828 102.695 34.0312 102.07 34.1875C101.445 34.3438 100.859 34.4609 100.312 34.5391C99.7812 34.6016 99.3203 34.6094 98.9297 34.5625C98.5547 34.5 98.3203 34.3359 98.2266 34.0703C98.3359 33.8672 98.7344 33.6328 99.4219 33.3672C100.109 33.1016 100.984 32.8281 102.047 32.5469C103.125 32.25 104.32 31.9531 105.633 31.6562C106.961 31.3594 108.312 31.0781 109.688 30.8125C111.062 30.5469 112.406 30.3047 113.719 30.0859C115.031 29.8672 116.203 29.6875 117.234 29.5469C118.266 29.4062 119.094 29.3125 119.719 29.2656C120.359 29.2188 120.695 29.2344 120.727 29.3125C120.773 29.4375 120.781 29.5938 120.75 29.7812C120.719 29.9531 120.617 30.0625 120.445 30.1094C119.68 30.2344 118.852 30.375 117.961 30.5312C117.07 30.6719 116.164 30.8281 115.242 31C114.336 31.1562 113.445 31.3203 112.57 31.4922C111.695 31.6484 110.883 31.8047 110.133 31.9609C109.648 32.0547 109.18 32.3359 108.727 32.8047C108.273 33.2734 107.836 33.8594 107.414 34.5625C106.992 35.25 106.586 36.0234 106.195 36.8828C105.805 37.7266 105.43 38.5859 105.07 39.4609C104.727 40.3359 104.406 41.1797 104.109 41.9922C103.812 42.8047 103.539 43.5234 103.289 44.1484C103.039 44.7578 102.82 45.2344 102.633 45.5781C102.445 45.9219 102.289 46.0625 102.164 46C102.133 45.9688 102.086 45.9219 102.023 45.8594C101.961 45.7969 101.922 45.7578 101.906 45.7422Z" fill="white"/>
</svg>
